<?xml version="1.0" encoding="utf-8"?><svg xmlns="http://www.w3.org/2000/svg" xmlns:xlink="http://www.w3.org/1999/xlink"><symbol viewBox="0 0 442.533 442.533" id="checked" xmlns="http://www.w3.org/2000/svg"><path d="M434.539 98.499l-38.828-38.828c-5.324-5.328-11.799-7.993-19.41-7.993-7.618 0-14.093 2.665-19.417 7.993L169.59 247.248l-83.939-84.225c-5.33-5.33-11.801-7.992-19.412-7.992-7.616 0-14.087 2.662-19.417 7.992L7.994 201.852C2.664 207.181 0 213.654 0 221.269c0 7.609 2.664 14.088 7.994 19.416l103.351 103.349 38.831 38.828c5.327 5.332 11.8 7.994 19.414 7.994 7.611 0 14.084-2.669 19.414-7.994l38.83-38.828L434.539 137.33c5.325-5.33 7.994-11.802 7.994-19.417.004-7.611-2.669-14.084-7.994-19.414z"/></symbol><symbol viewBox="0 0 365.696 365.696" id="close" xmlns="http://www.w3.org/2000/svg"><path d="M243.188 182.86L356.32 69.726c12.5-12.5 12.5-32.766 0-45.247L341.238 9.398c-12.504-12.503-32.77-12.503-45.25 0L182.86 122.528 69.727 9.374c-12.5-12.5-32.766-12.5-45.247 0L9.375 24.457c-12.5 12.504-12.5 32.77 0 45.25l113.152 113.152L9.398 295.99c-12.503 12.503-12.503 32.769 0 45.25l15.082 15.08c12.5 12.5 32.766 12.5 45.247 0l113.132-113.132L295.99 356.32c12.503 12.5 32.769 12.5 45.25 0l15.081-15.082c12.5-12.504 12.5-32.77 0-45.25zm0 0"/></symbol><symbol viewBox="0 0 447.907 447.907" id="delivery" xmlns="http://www.w3.org/2000/svg"><path d="M432.703 206.904l-30.5-13.2-25.9-50.4c-7-13.8-21.2-22.4-36.7-22.3h-44.6v-12.6c0-22.8-18.2-41.4-41-41.4h-213.2c-22.8 0-40.8 18.7-40.8 41.4v193c-.2 13.9 10.9 25.3 24.8 25.5h5.7c0 1-.1 1.4-.1 2-.1 28.6 23 51.9 51.6 52 28.6.1 51.9-23 52-51.6v-.5c0-.7 0-1-.1-2h172.3v2c-.1 28.6 23 51.9 51.6 52 28.6.1 51.9-23 52-51.6v-2.5h12.9c13.9 0 25.2-11.3 25.2-25.2v-71.4c.2-9.8-5.8-19.1-15.2-23.2zm-350.4 154.1c-17.6 0-31.8-14.2-31.8-31.8s14.2-31.8 31.8-31.8 31.8 14.2 31.8 31.8c0 17.5-14.3 31.8-31.8 31.8zm192.7-53.9h-145.8c-8.4-18.3-26.8-30-46.9-29.9-20.2-.1-38.5 11.5-46.9 29.9h-10.2c-3.1 0-5.2-2.4-5.2-5.5v-51.5h255v57zm0-198.6v121.6h-255v-121.6c0-11.7 9.1-21.4 20.8-21.4h213.2c11.7.1 21.1 9.7 21 21.3v.1zm20 32.6h44.6c7.9-.1 15.3 4.2 19 11.3l20 38.7h-83.6v-50zm63.1 219.9c-17.6 0-31.8-14.2-31.8-31.8s14.2-31.8 31.8-31.8 31.8 14.2 31.8 31.8c0 17.5-14.2 31.8-31.8 31.8zm69.9-59.4c0 3.1-2.1 5.5-5.2 5.5h-17.8c-12.1-25.9-42.9-37.1-68.8-25-11 5.1-19.9 14-25 25h-16.2v-96h98l31.8 14c2 1 3.3 3.2 3.2 5.4v71.1z"/></symbol><symbol viewBox="0 0 1792 1792" id="info-circle" xmlns="http://www.w3.org/2000/svg"><path d="M1152 1376v-160q0-14-9-23t-23-9h-96V672q0-14-9-23t-23-9H672q-14 0-23 9t-9 23v160q0 14 9 23t23 9h96v320h-96q-14 0-23 9t-9 23v160q0 14 9 23t23 9h448q14 0 23-9t9-23zm-128-896V320q0-14-9-23t-23-9H800q-14 0-23 9t-9 23v160q0 14 9 23t23 9h192q14 0 23-9t9-23zm640 416q0 209-103 385.5T1281.5 1561 896 1664t-385.5-103T231 1281.5 128 896t103-385.5T510.5 231 896 128t385.5 103T1561 510.5 1664 896z"/></symbol><symbol viewBox="0 0 496 496" id="money-back" xmlns="http://www.w3.org/2000/svg"><path d="M456 384H271.16c-.902-3.543-2.535-6.887-4.945-9.695L222.063 322.8A7.93 7.93 0 00216 320h-88v-8c0-4.414-3.574-8-8-8H8c-4.426 0-8 3.586-8 8v176c0 4.414 3.574 8 8 8h64c4.426 0 8-3.586 8-8v-8h40c4.426 0 8-3.586 8-8v-8h53.574l45.985 30.656A8.055 8.055 0 00232 496a8.22 8.22 0 001.71-.184l256-56A8.003 8.003 0 00496 432v-8c0-22.055-17.945-40-40-40zM64 480H16V320h48zm48-16H80V320h32zm368-38.441l-246.39 53.898-45.169-30.113A8.061 8.061 0 00184 448h-56V336h84.32l41.758 48.71a8.036 8.036 0 011.922 5.2V400c0 4.406-3.586 8-8 8h-9.375a8.058 8.058 0 01-5.656-2.344l-35.313-35.312-11.312 11.312 35.312 35.313c4.528 4.535 10.559 7.031 16.969 7.031H248c13.23 0 24-10.77 24-24h184c13.23 0 24 10.77 24 24zM488 0h-48c-4.426 0-8 3.586-8 8v8H160c-13.23 0-24 10.77-24 24s10.77 24 24 24h96v80c0 2.121.84 4.16 2.344 5.656l27.312 27.313c4.528 4.535 10.559 7.031 16.969 7.031H304c13.23 0 24-10.77 24-24v-1.367c0-6.41-2.496-12.442-7.031-16.977L304 124.687V72c0-4.406 3.586-8 8-8h48c4.414 0 8 3.594 8 8v52.688l-16.969 16.968c-4.535 4.528-7.031 10.559-7.031 16.977V160c0 13.23 10.77 24 24 24h1.375c6.41 0 12.441-2.496 16.969-7.031l27.312-27.313A7.978 7.978 0 00416 144V64h16v56c0 4.414 3.574 8 8 8h48c4.426 0 8-3.586 8-8V8c0-4.414-3.574-8-8-8zm-80 48c-4.426 0-8 3.586-8 8v84.688l-24.969 24.968a8.071 8.071 0 01-5.656 2.344H368c-4.414 0-8-3.594-8-8v-1.367a7.96 7.96 0 012.344-5.664l19.312-19.313A7.978 7.978 0 00384 128V72c0-13.23-10.77-24-24-24h-48c-13.23 0-24 10.77-24 24v56c0 2.121.84 4.16 2.344 5.656l19.312 19.313a7.963 7.963 0 012.344 5.664V160c0 4.406-3.586 8-8 8h-1.375a8.058 8.058 0 01-5.656-2.344L272 140.687V56c0-4.414-3.574-8-8-8H160c-4.414 0-8-3.594-8-8s3.586-8 8-8h272v16zm72 64h-32V16h32zm0 0"/><path d="M328 168v32h-56c-4.426 0-8 3.586-8 8v98.336c0 21.344 11.855 40.535 30.953 50.09l37.473 18.734a8.019 8.019 0 007.148 0l37.473-18.734C396.145 346.87 408 327.68 408 306.336V208c0-4.414-3.574-8-8-8h-56v-32zm-48 138.336V216h48v17.473c-9.29 3.312-16 12.113-16 22.527v16c0 13.23 10.77 24 24 24 4.414 0 8 3.594 8 8v16c0 4.406-3.586 8-8 8s-8-3.594-8-8v-8h-16v8c0 10.414 6.71 19.215 16 22.527v12.528l-25.887-12.942C288.473 335.297 280 321.586 280 306.336zM392 216v90.336c0 15.25-8.473 28.96-22.113 35.777L344 355.055v-12.528c9.29-3.312 16-12.113 16-22.527v-16c0-13.23-10.77-24-24-24-4.414 0-8-3.594-8-8v-16c0-4.406 3.586-8 8-8s8 3.594 8 8v8h16v-8c0-10.414-6.71-19.215-16-22.527V216zm0 0"/></symbol><symbol viewBox="0 0 512.002 512.002" id="star" xmlns="http://www.w3.org/2000/svg"><path d="M511.267 197.258a14.995 14.995 0 00-12.107-10.209l-158.723-23.065-70.985-143.827a14.998 14.998 0 00-26.901 0l-70.988 143.827-158.72 23.065a14.998 14.998 0 00-8.312 25.585l114.848 111.954-27.108 158.083a14.999 14.999 0 0021.763 15.812l141.967-74.638 141.961 74.637a15 15 0 0021.766-15.813l-27.117-158.081 114.861-111.955a14.994 14.994 0 003.795-15.375z"/></symbol><symbol viewBox="0 0 477.863 477.863" id="tag" xmlns="http://www.w3.org/2000/svg"><path d="M460.796 0H273.063a17.066 17.066 0 00-12.066 5.001l-256 256c-6.663 6.665-6.663 17.468 0 24.132L192.73 472.866c6.665 6.662 17.468 6.662 24.132 0l256-256c3.201-3.2 5-7.54 5.001-12.066V17.067C477.863 7.641 470.222 0 460.796 0zM443.73 197.734L204.796 436.668 41.195 273.067 280.129 34.133H443.73v163.601z"/><path d="M358.396 68.267c-28.277 0-51.2 22.923-51.2 51.2s22.923 51.2 51.2 51.2 51.2-22.923 51.2-51.2-22.923-51.2-51.2-51.2zm0 68.266c-9.426 0-17.067-7.641-17.067-17.067s7.641-17.067 17.067-17.067 17.067 7.641 17.067 17.067-7.641 17.067-17.067 17.067z"/></symbol><symbol viewBox="0 0 24 24" id="telegram" xmlns="http://www.w3.org/2000/svg"><path d="M12 24c6.629 0 12-5.371 12-12S18.629 0 12 0 0 5.371 0 12s5.371 12 12 12zM5.491 11.74l11.57-4.461c.537-.194 1.006.131.832.943l.001-.001-1.97 9.281c-.146.658-.537.818-1.084.508l-3-2.211-1.447 1.394c-.16.16-.295.295-.605.295l.213-3.053 5.56-5.023c.242-.213-.054-.333-.373-.121l-6.871 4.326-2.962-.924c-.643-.204-.657-.643.136-.953z"/></symbol><symbol viewBox="0 0 24 24" id="whatsapp" xmlns="http://www.w3.org/2000/svg"><path d="M17.507 14.307l-.009.075c-2.199-1.096-2.429-1.242-2.713-.816-.197.295-.771.964-.944 1.162-.175.195-.349.21-.646.075-.3-.15-1.263-.465-2.403-1.485-.888-.795-1.484-1.77-1.66-2.07-.293-.506.32-.578.878-1.634.1-.21.049-.375-.025-.524-.075-.15-.672-1.62-.922-2.206-.24-.584-.487-.51-.672-.51-.576-.05-.997-.042-1.368.344-1.614 1.774-1.207 3.604.174 5.55 2.714 3.552 4.16 4.206 6.804 5.114.714.227 1.365.195 1.88.121.574-.091 1.767-.721 2.016-1.426.255-.705.255-1.29.18-1.425-.074-.135-.27-.21-.57-.345z"/><path d="M20.52 3.449C12.831-3.984.106 1.407.101 11.893c0 2.096.549 4.14 1.595 5.945L0 24l6.335-1.652c7.905 4.27 17.661-1.4 17.665-10.449 0-3.176-1.24-6.165-3.495-8.411zm1.482 8.417c-.006 7.633-8.385 12.4-15.012 8.504l-.36-.214-3.75.975 1.005-3.645-.239-.375c-4.124-6.565.614-15.145 8.426-15.145a9.865 9.865 0 017.021 2.91 9.788 9.788 0 012.909 6.99z"/></symbol></svg>